<?xml version="1.0" encoding="UTF-8"?>
<svg width="18px" height="18px" viewBox="0 0 18 18" version="1.1" xmlns="http://www.w3.org/2000/svg" xmlns:xlink="http://www.w3.org/1999/xlink">
    <title>Beauty and Styling</title>
    <g id="Page-1" stroke="none" stroke-width="1" fill="none" fill-rule="evenodd">
        <g id="CATEGORIES" transform="translate(-64.000000, -357.000000)" fill="#FF8811">
            <g id="Beauty-and-Styling" transform="translate(64.000000, 357.000000)">
                <g id="Group-11-Copy">
                    <path d="M11.047619,4.28571429 L12.952381,4.28571429 C13.3737143,4.28571429 13.7142857,3.90171429 13.7142857,3.42857143 C13.7142857,2.95542857 13.3737143,2.57142857 12.952381,2.57142857 L11.047619,2.57142857 C10.6262857,2.57142857 10.2857143,2.95542857 10.2857143,3.42857143 C10.2857143,3.90171429 10.6262857,4.28571429 11.047619,4.28571429" id="Fill-1"></path>
                    <path d="M11.047619,7.71428571 L12.952381,7.71428571 C13.3737143,7.71428571 13.7142857,7.33028571 13.7142857,6.85714286 C13.7142857,6.384 13.3737143,6 12.952381,6 L11.047619,6 C10.6262857,6 10.2857143,6.384 10.2857143,6.85714286 C10.2857143,7.33028571 10.6262857,7.71428571 11.047619,7.71428571" id="Fill-3"></path>
                    <path d="M11.047619,10.2857143 L12.952381,10.2857143 C13.3737143,10.2857143 13.7142857,9.90257143 13.7142857,9.42857143 C13.7142857,8.95542857 13.3737143,8.57142857 12.952381,8.57142857 L11.047619,8.57142857 C10.6262857,8.57142857 10.2857143,8.95542857 10.2857143,9.42857143 C10.2857143,9.90257143 10.6262857,10.2857143 11.047619,10.2857143" id="Fill-5"></path>
                    <path d="M8.08163265,13.8751289 C8.48718367,13.8751289 8.81632653,14.2103684 8.81632653,14.6251055 C8.81632653,15.0398425 8.48718367,15.375082 8.08163265,15.375082 C7.67608163,15.375082 7.34693878,15.0398425 7.34693878,14.6251055 C7.34693878,14.2103684 7.67608163,13.8751289 8.08163265,13.8751289 L8.08163265,13.8751289 Z M4.71306122,8.76253867 C4.63665306,8.83078654 4.52057143,8.82328677 4.45371429,8.74528921 C4.42432653,8.71154026 4.40816327,8.66729165 4.40816327,8.62154308 L4.40816327,6.14137058 L5.14285714,3.2097122 L5.87755102,6.14137058 L5.87755102,7.63682385 C5.87755102,7.69082216 5.85477551,7.74257054 5.81510204,7.77856942 L4.71306122,8.76253867 Z M2.20408163,15.375082 C1.79853061,15.375082 1.46938776,15.0398425 1.46938776,14.6251055 C1.46938776,14.2103684 1.79853061,13.8751289 2.20408163,13.8751289 C2.60963265,13.8751289 2.93877551,14.2103684 2.93877551,14.6251055 C2.93877551,15.0398425 2.60963265,15.375082 2.20408163,15.375082 L2.20408163,15.375082 Z M10.2857143,14.6251055 C10.2857143,13.3823943 9.29902041,12.3751758 8.08163265,12.3751758 C7.83110204,12.3774257 7.58204082,12.4239243 7.34693878,12.5131715 L7.34693878,6.04687354 C7.34693878,5.9838755 7.33885714,5.92162745 7.32416327,5.86012937 L6.0355102,0.719790007 C5.99804082,0.568294741 5.91428571,0.432548983 5.79673469,0.331302147 L5.616,0.176056998 C5.34269388,-0.0586856661 4.94302041,-0.0586856661 4.66971429,0.176056998 L4.48897959,0.331302147 C4.37142857,0.432548983 4.28767347,0.568294741 4.25020408,0.719790007 L2.96155102,5.86012937 C2.94685714,5.92162745 2.93877551,5.9838755 2.93877551,6.04687354 L2.93877551,12.5131715 C2.70367347,12.4239243 2.45461224,12.3774257 2.20408163,12.3751758 C0.986693878,12.3751758 0,13.3823943 0,14.6251055 C0,15.8678166 0.986693878,16.8750352 2.20408163,16.8750352 C3.42146939,16.8750352 4.40816327,15.8678166 4.40816327,14.6251055 L4.40816327,11.1137152 C4.40816327,11.0597169 4.43093878,11.0079685 4.47061224,10.9719696 L5.57265306,9.98800037 C5.64906122,9.91975251 5.76514286,9.92725227 5.832,10.0052498 C5.86138776,10.0397488 5.87755102,10.0832474 5.87755102,10.128996 L5.87755102,14.6251055 C5.87828571,15.6863223 6.60563265,16.6027937 7.62244898,16.8240367 C8.00595918,17.5470142 8.74579592,17.9977501 9.55102041,18 C9.95730612,18 10.2857143,17.6647605 10.2857143,17.2500234 C10.2857143,16.8352864 9.95730612,16.5000469 9.55102041,16.5000469 C9.4804898,16.4985469 9.41142857,16.4857973 9.34383673,16.464798 C9.93379592,16.0455611 10.2849796,15.3585825 10.2857143,14.6251055 L10.2857143,14.6251055 Z" id="Fill-7"></path>
                    <path d="M17.1412898,2.0625 C17.1397224,0.92475 16.1773714,0.00225 14.9877551,0 L11.0693878,0 C10.6368,0 10.2857143,0.336 10.2857143,0.75 C10.2857143,1.164 10.6368,1.5 11.0693878,1.5 L14.2040816,1.5 C14.3122286,1.5 14.4,1.584 14.4,1.6875 L14.4,11.0625 C14.4,11.166 14.3122286,11.25 14.2040816,11.25 L11.0693878,11.25 C10.6368,11.25 10.2857143,11.58525 10.2857143,12 C10.2857143,12.41475 10.6368,12.75 11.0693878,12.75 L14.2040816,12.75 C14.3122286,12.75 14.4,12.834 14.4,12.9375 L14.4,16.6875 C14.4,17.41275 15.0136163,18 15.7714286,18 C16.5292408,18 17.1428571,17.41275 17.1428571,16.6875 L17.1412898,2.0625 Z" id="Fill-9"></path>
                </g>
            </g>
        </g>
    </g>
</svg>