<?xml version="1.0" encoding="UTF-8"?>
<svg width="18px" height="18px" viewBox="0 0 18 18" version="1.1" xmlns="http://www.w3.org/2000/svg" xmlns:xlink="http://www.w3.org/1999/xlink">
    <title>Dining</title>
    <defs>
        <polygon id="path-1" points="0.17602224 0 14.3953525 0 14.3953525 8.57135325 0.17602224 8.57135325"></polygon>
    </defs>
    <g id="Page-1" stroke="none" stroke-width="1" fill="none" fill-rule="evenodd">
        <g id="CATEGORIES" transform="translate(-64.000000, -486.000000)">
            <g id="Dining" transform="translate(64.000000, 486.000000)">
                <g id="Group-10-Copy">
                    <path d="M13.0857143,15.4285714 L6.4,15.4285714 C6.19497143,15.4285714 6.02857143,15.2749714 6.02857143,15.0857143 C6.02857143,14.8964571 6.19497143,14.7428571 6.4,14.7428571 L8.25714286,14.7428571 C8.46217143,14.7428571 8.62857143,14.5892571 8.62857143,14.4 C8.62857143,14.0208 8.29577143,13.7142857 7.88571429,13.7142857 L3.8,13.7142857 C3.59497143,13.7142857 3.42857143,13.8678857 3.42857143,14.0571429 L3.42857143,16.8 C3.42857143,16.9892571 3.59497143,17.1428571 3.8,17.1428571 L14.2,17.1428571 C14.4050286,17.1428571 14.5714286,16.9892571 14.5714286,16.8 C14.5714286,16.0429714 13.9058286,15.4285714 13.0857143,15.4285714" id="Fill-1" fill="#FF8811"></path>
                    <g id="Group-5" transform="translate(1.714286, 0.000000)">
                        <mask id="mask-2" fill="white">
                            <use xlink:href="#path-1"></use>
                        </mask>
                        <g id="Clip-4"></g>
                        <path d="M3.46430004,5.37654545 C4.2407012,4.73057143 5.15763788,4.28096104 6.13831471,4.06355844 C6.44933595,3.99576623 6.75651741,4.19602597 6.82332938,4.51161039 C6.89014135,4.82719481 6.69277726,5.1381039 6.38175602,5.20667532 C5.57924444,5.38433766 4.82972166,5.75290909 4.19539193,6.282 C3.9488788,6.48693506 3.58563672,6.45031169 3.3836649,6.20018182 C3.18169309,5.95005195 3.21778691,5.58148052 3.46430004,5.37654545 M0.56066722,8.57135325 L14.0106078,8.57135325 C14.222563,8.57212987 14.3945846,8.39758442 14.3953525,8.18251948 C14.3953525,8.15290909 14.3922807,8.1232987 14.3853692,8.09446753 C13.7687024,5.36719481 11.6913877,3.22511688 9.0143012,2.55576623 C8.80772166,2.50511688 8.68100931,2.29472727 8.73169425,2.0858961 C8.73399811,2.07420779 8.73706992,2.0632987 8.74090969,2.05161039 C8.79466645,1.89264935 8.82154483,1.7258961 8.82154483,1.55836364 C8.82154483,0.698103896 8.13422629,-7.79220779e-05 7.28563749,-7.79220779e-05 C6.43781664,-7.79220779e-05 5.74973015,0.698103896 5.74973015,1.55836364 C5.74973015,1.7258961 5.77660853,1.89264935 5.83036529,2.05161039 C5.89871317,2.25576623 5.79119965,2.47628571 5.59076375,2.54641558 C5.57924444,2.55031169 5.56849309,2.55264935 5.55697378,2.55576623 C2.8798873,3.22511688 0.802572625,5.36719481 0.18590583,8.09446753 C0.138292703,8.30407792 0.267308919,8.51290909 0.473888456,8.56122078 C0.503070695,8.56823377 0.531484981,8.57135325 0.56066722,8.57135325" id="Fill-3" fill="#FF8811" mask="url(#mask-2)"></path>
                    </g>
                    <path d="M17.4375,8.57142857 L0.5625,8.57142857 C0.252,8.57142857 0,8.85942857 0,9.21428571 C0,9.56914286 0.252,9.85714286 0.5625,9.85714286 L1.1895,9.85714286 C1.2885,9.85714286 1.38375,9.90257143 1.45425,9.98228571 L2.25,10.8917143 C2.391,11.0528571 2.5815,11.1428571 2.78025,11.1428571 L15.21975,11.1428571 C15.41925,11.1428571 15.609,11.0528571 15.75,10.8917143 L16.54575,9.98228571 C16.61625,9.90257143 16.7115,9.85714286 16.81125,9.85714286 L17.4375,9.85714286 C17.748,9.85714286 18,9.56914286 18,9.21428571 C18,8.85942857 17.748,8.57142857 17.4375,8.57142857" id="Fill-6" fill="#FF8811"></path>
                    <path d="M1.5,16.8979592 C1.14514286,16.8979592 0.857142857,16.651102 0.857142857,16.3469388 C0.857142857,16.0427755 1.14514286,15.7959184 1.5,15.7959184 C1.85485714,15.7959184 2.14285714,16.0427755 2.14285714,16.3469388 C2.14285714,16.651102 1.85485714,16.8979592 1.5,16.8979592 M2.57142857,12.8571429 L0.857142857,12.8571429 C0.384,12.8571429 0,13.185551 0,13.5918367 L0,17.2653061 C0,17.6715918 0.384,18 0.857142857,18 L2.57142857,18 C3.04457143,18 3.42857143,17.6715918 3.42857143,17.2653061 L3.42857143,13.5918367 C3.42857143,13.185551 3.04457143,12.8571429 2.57142857,12.8571429" id="Fill-8" fill="#FF8811"></path>
                </g>
            </g>
        </g>
    </g>
</svg>