<?xml version="1.0" encoding="UTF-8"?>
<svg width="17px" height="18px" viewBox="0 0 17 18" version="1.1" xmlns="http://www.w3.org/2000/svg" xmlns:xlink="http://www.w3.org/1999/xlink">
    <title>General Health</title>
    <defs>
        <polygon id="path-1" points="0.397133582 0.02025 13.1030206 0.02025 13.1030206 18 0.397133582 18"></polygon>
    </defs>
    <g id="Page-1" stroke="none" stroke-width="1" fill="none" fill-rule="evenodd">
        <g id="CATEGORIES" transform="translate(-66.000000, -529.000000)">
            <g id="General-Health" transform="translate(66.000000, 529.000000)">
                <g id="Group-8-Copy" transform="translate(-0.000000, 0.000000)">
                    <g id="Group-3" transform="translate(1.800000, 0.000000)">
                        <mask id="mask-2" fill="white">
                            <use xlink:href="#path-1"></use>
                        </mask>
                        <g id="Clip-2"></g>
                        <path d="M11.7442853,8.636025 C11.3519912,8.822025 11.1939618,9.272775 11.3901088,9.642525 C11.4726971,9.798525 11.5155794,9.971025 11.5147853,10.145025 C11.5147853,11.078775 9.71928529,11.539275 7.89281471,11.903775 C7.83166765,11.916525 7.76813824,11.900025 7.72128529,11.861775 C7.67363824,11.823525 7.64902059,11.765025 7.65378529,11.706525 L7.77766765,10.149525 C8.08340294,6.293025 8.33831471,1.851525 8.33831471,1.520025 C8.33831471,0.692025 7.62678529,0.020025 6.75007941,0.020025 C5.87257941,0.020025 5.16184412,0.692025 5.16184412,1.520025 C5.16184412,1.851525 5.41675588,6.293025 5.72249118,10.149525 L5.84637353,11.706525 C5.85431471,11.810775 5.77093235,11.900025 5.66055,11.907525 C5.64307941,11.908275 5.62560882,11.907525 5.60813824,11.903775 C3.78007941,11.538525 1.98537353,11.078775 1.98537353,10.145025 C1.98457941,9.971025 2.02746176,9.798525 2.11005,9.642525 C2.30778529,9.272775 2.14896176,8.821275 1.75746176,8.634525 C1.36516765,8.448525 0.887902941,8.597025 0.690167647,8.967525 C0.497197059,9.333525 0.396344118,9.736275 0.397133582,10.145025 C0.397133582,11.594025 1.60022647,12.356775 3.15431471,12.851775 C3.25834412,12.884025 3.31393235,12.990525 3.27978529,13.088775 C3.26469706,13.130775 3.23452059,13.166775 3.19402059,13.189275 C2.45866765,13.536525 1.99172647,14.243775 1.98537353,15.020025 C1.98537353,16.262775 3.05187353,17.270025 4.36772647,17.270025 C4.80607941,17.270025 5.16184412,16.934775 5.16184412,16.520025 C5.16184412,16.105275 4.80607941,15.770025 4.36772647,15.770025 C3.92937353,15.770025 3.57360882,15.434775 3.57360882,15.020025 C3.57360882,14.504025 4.59166765,14.147025 5.78999118,13.865775 C5.89560882,13.841025 6.00360882,13.901775 6.02981471,14.001525 C6.03299118,14.011275 6.03457941,14.021775 6.03537353,14.032275 C6.14734412,15.336525 6.25772647,16.456275 6.35302059,17.675025 C6.38240294,17.880525 6.58252059,18.024525 6.79931471,17.996775 C6.97719706,17.974275 7.11616765,17.842275 7.13999118,17.675025 C7.23925588,16.456275 7.34884412,15.336525 7.45763824,14.032275 C7.46637353,13.929525 7.56087353,13.853025 7.66966765,13.860525 C7.68157941,13.861275 7.69269706,13.862775 7.70381471,13.865775 C8.90849118,14.147025 9.92655,14.504025 9.92655,15.020025 C9.92655,15.434775 9.57157941,15.770025 9.13243235,15.770025 C8.69328529,15.770025 8.33831471,16.105275 8.33831471,16.520025 C8.33831471,16.934775 8.69328529,17.270025 9.13243235,17.270025 C10.4482853,17.270025 11.5147853,16.262775 11.5147853,15.020025 C11.5084324,14.243775 11.0414912,13.536525 10.3053441,13.189275 C10.2116382,13.136025 10.1822559,13.020525 10.2386382,12.932025 C10.2632559,12.893775 10.3013735,12.865275 10.3458441,12.851775 C11.8999324,12.356775 13.1030206,11.594025 13.1030206,10.145025 C13.1030206,9.737775 13.0021676,9.335775 12.8099912,8.970525 C12.6138441,8.600775 12.1365794,8.450775 11.7442853,8.636025" id="Fill-1" fill="#FF8811" mask="url(#mask-2)"></path>
                    </g>
                    <path d="M3.59968183,4.64337271 C3.59968183,4.85696786 3.43841609,5.03032044 3.23971365,5.03032044 L2.09861451,5.03032044 C1.89991207,5.03032044 1.73864632,5.20367302 1.73864632,5.41726816 C1.73864632,5.51013562 1.76960359,5.59913359 1.82575862,5.66955808 C2.71559997,6.78551532 3.86965797,7.6220963 5.16482349,8.09030305 C5.22169846,8.11042433 5.28433293,8.0988159 5.33184873,8.05934723 C5.37864459,8.01987857 5.40384236,7.95796693 5.39952275,7.89373361 C5.19506082,4.60932131 5.03955456,1.4796881 5.03955456,1.16084318 C5.03955456,1.1407219 5.04459412,1.1229223 5.04531405,1.10280102 C4.78901671,0.435703139 4.18355022,0 3.51112966,0 L0.359968183,0 C0.161265746,0 0,0.173352581 0,0.386947726 C0,0.795564524 0.0302373274,1.20340743 0.088552173,1.60738085 C0.115909755,1.79543745 0.267096392,1.93473863 0.444200738,1.93473863 L2.1598091,1.93473863 C2.35851154,1.93473863 2.51977728,2.10809121 2.51977728,2.32168636 C2.51977728,2.5352815 2.35851154,2.70863408 2.1598091,2.70863408 L0.817847712,2.70863408 C0.619145275,2.70863408 0.457879529,2.88198666 0.457879529,3.09558181 C0.457879529,3.14124164 0.465078893,3.18690147 0.480197556,3.23023962 C0.575949093,3.50729419 0.686099357,3.77893149 0.809208476,4.04360374 C0.870403067,4.17439207 0.994952058,4.25642498 1.13102003,4.25642498 L3.23971365,4.25642498 C3.43841609,4.25642498 3.59968183,4.42977757 3.59968183,4.64337271" id="Fill-4" fill="#FF8811"></path>
                    <path d="M13.6801508,2.32168636 C13.6801508,2.10809121 13.8414211,1.93473863 14.0401292,1.93473863 L15.7557866,1.93473863 C15.9336159,1.93473863 16.0840869,1.79543745 16.1114453,1.60738085 C16.1704818,1.20340743 16.2,0.795564524 16.2,0.386947726 C16.2,0.173352581 16.0387296,0 15.8400215,0 L12.6887701,0 C12.0163303,0 11.4115665,0.434929244 11.1545419,1.10280102 C11.1545419,1.1229223 11.1603016,1.1407219 11.1603016,1.16084318 C11.1603016,1.48123589 11.0040709,4.61009521 10.8003231,7.89373361 C10.7967233,7.95874083 10.8233617,8.02065246 10.8723188,8.05934723 C10.9198359,8.0988159 10.9824722,8.11042433 11.0393488,8.09030305 C12.3352713,7.6220963 13.4893622,6.78551532 14.3792289,5.66955808 C14.5088212,5.50781393 14.4915422,5.26326297 14.3410712,5.12396179 C14.2741152,5.06282405 14.1891603,5.02954654 14.1013256,5.03032044 L12.9601939,5.03032044 C12.7614857,5.03032044 12.6002154,4.85696786 12.6002154,4.64337271 C12.6002154,4.42977757 12.7614857,4.25642498 12.9601939,4.25642498 L15.0689477,4.25642498 C15.2050195,4.25642498 15.3295721,4.17439207 15.3907684,4.04360374 C15.514601,3.77893149 15.6240345,3.50729419 15.7197887,3.23023962 C15.7889046,3.02980069 15.6938703,2.8069188 15.5074014,2.73262484 C15.4670839,2.71714693 15.4253264,2.70863408 15.3821289,2.70863408 L14.0401292,2.70863408 C13.8414211,2.70863408 13.6801508,2.5352815 13.6801508,2.32168636" id="Fill-6" fill="#FF8811"></path>
                </g>
            </g>
        </g>
    </g>
</svg>