<?xml version="1.0" encoding="UTF-8"?>
<svg width="17px" height="18px" viewBox="0 0 17 18" version="1.1" xmlns="http://www.w3.org/2000/svg" xmlns:xlink="http://www.w3.org/1999/xlink">
    <title>Cleaning</title>
    <defs>
        <polygon id="path-1" points="0 0.0390229802 12.2726551 0.0390229802 12.2726551 12.2727273 0 12.2727273"></polygon>
    </defs>
    <g id="Page-1" stroke="none" stroke-width="1" fill="none" fill-rule="evenodd">
        <g id="CATEGORIES" transform="translate(-65.000000, -400.000000)">
            <g id="Cleaning" transform="translate(65.000000, 400.000000)">
                <g id="Group-14-Copy">
                    <g id="Group-3" transform="translate(0.000000, 4.909091)">
                        <mask id="mask-2" fill="white">
                            <use xlink:href="#path-1"></use>
                        </mask>
                        <g id="Clip-2"></g>
                        <path d="M8.79586364,2.29299032 C8.5908369,2.03867755 8.28546257,1.8918731 7.96420588,1.89261454 L7.58014171,1.89261454 C7.38089037,1.89261454 7.21917914,1.72653274 7.21917914,1.52189623 L7.21917914,0.409741292 C7.21917914,0.205104784 7.05746791,0.0390229802 6.85821658,0.0390229802 L5.41436631,0.0390229802 C5.21511497,0.0390229802 5.05340374,0.205104784 5.05340374,0.409741292 L5.05340374,1.52189623 C5.05340374,1.72653274 4.89169251,1.89261454 4.69244118,1.89261454 L4.30837701,1.89261454 C3.9863984,1.8918731 3.68174599,2.03867755 3.47671925,2.29299032 L0.943483957,5.4144385 C-0.496034759,7.18943778 -0.262131016,9.82524498 1.46543583,11.3036696 C2.19674599,11.9294421 3.11864439,12.2727273 4.07086364,12.2727273 L8.20171925,12.2727273 C10.450516,12.2719858 12.2726551,10.3998584 12.2726551,8.08954184 C12.2719332,7.11232837 11.9384037,6.1655138 11.3290989,5.4144385 L8.79586364,2.29299032 Z" id="Fill-1" fill="#FF8811" mask="url(#mask-2)"></path>
                    </g>
                    <path d="M13.0909091,2.45454545 C13.5433636,2.45454545 13.9090909,2.82109091 13.9090909,3.27272727 C13.9090909,3.72436364 13.5433636,4.09090909 13.0909091,4.09090909 C12.6384545,4.09090909 12.2727273,3.72436364 12.2727273,3.27272727 C12.2727273,2.82109091 12.6384545,2.45454545 13.0909091,2.45454545" id="Fill-4" fill="#FF8811"></path>
                    <path d="M15.5454545,2.45454545 C15.9979091,2.45454545 16.3636364,2.82109091 16.3636364,3.27272727 C16.3636364,3.72436364 15.9979091,4.09090909 15.5454545,4.09090909 C15.093,4.09090909 14.7272727,3.72436364 14.7272727,3.27272727 C14.7272727,2.82109091 15.093,2.45454545 15.5454545,2.45454545" id="Fill-6" fill="#FF8811"></path>
                    <path d="M15.5454545,0 C15.9979091,0 16.3636364,0.366545455 16.3636364,0.818181818 C16.3636364,1.26981818 15.9979091,1.63636364 15.5454545,1.63636364 C15.093,1.63636364 14.7272727,1.26981818 14.7272727,0.818181818 C14.7272727,0.366545455 15.093,0 15.5454545,0" id="Fill-8" fill="#FF8811"></path>
                    <path d="M15.5454545,4.09090909 C15.9979091,4.09090909 16.3636364,4.45745455 16.3636364,4.90909091 C16.3636364,5.36072727 15.9979091,5.72727273 15.5454545,5.72727273 C15.093,5.72727273 14.7272727,5.36072727 14.7272727,4.90909091 C14.7272727,4.45745455 15.093,4.09090909 15.5454545,4.09090909" id="Fill-10" fill="#FF8811"></path>
                    <path d="M11.4545455,2.88516746 C11.4545455,2.50484211 11.1375818,2.19617225 10.7454545,2.19617225 L10.3909091,2.19617225 C10.1952,2.19617225 10.0363636,2.04183732 10.0363636,1.85167464 L10.0363636,1.50717703 C10.0363636,1.12685167 9.7194,0.818181818 9.32727273,0.818181818 L4.71818182,0.818181818 C2.56538182,0.820248804 0.820309091,2.51586603 0.818181818,4.6076555 C0.818181818,4.79781818 0.977018182,4.95215311 1.17272727,4.95215311 L6.93905455,4.95215311 C7.10427273,4.95215311 7.24750909,5.06377033 7.28438182,5.22017225 C7.57510909,6.47069856 8.71674545,7.36019139 10.0363636,7.36363636 C10.4284909,7.36363636 10.7454545,7.05496651 10.7454545,6.67464115 C10.7454545,6.29431579 10.4284909,5.98564593 10.0363636,5.98564593 C9.48965455,5.98495694 8.99258182,5.67835407 8.76,5.1981244 C8.71816364,5.112 8.75574545,5.00933971 8.84438182,4.968689 C8.86849091,4.95766507 8.89401818,4.95215311 8.92025455,4.95215311 L9.32656364,4.95215311 C9.71869091,4.95215311 10.0356545,4.64348325 10.0356545,4.26315789 L10.0356545,3.91866029 C10.0356545,3.72849761 10.1944909,3.57416268 10.3902,3.57416268 L10.7447455,3.57416268 C11.1368727,3.57416268 11.4538364,3.26618182 11.4545455,2.88585646 L11.4545455,2.88516746 Z" id="Fill-12" fill="#FF8811"></path>
                </g>
            </g>
        </g>
    </g>
</svg>