<?xml version="1.0" encoding="UTF-8"?>
<svg width="19px" height="19px" viewBox="0 0 19 19" version="1.1" xmlns="http://www.w3.org/2000/svg" xmlns:xlink="http://www.w3.org/1999/xlink">
    <title>Dental</title>
    <defs>
        <polygon id="path-1" points="0 0.0258715345 10.2376174 0.0258715345 10.2376174 12.8569968 0 12.8569968"></polygon>
        <polygon id="path-3" points="0.00635311638 0 10.2026343 0 10.2026343 9.42857143 0.00635311638 9.42857143"></polygon>
    </defs>
    <g id="Page-1" stroke="none" stroke-width="1" fill="none" fill-rule="evenodd">
        <g id="CATEGORIES" transform="translate(-65.000000, -314.000000)">
            <g id="Dental" transform="translate(65.000000, 314.000000)">
                <g id="Group-7-Copy">
                    <g id="Group-3" transform="translate(0.000000, 5.142857)">
                        <mask id="mask-2" fill="white">
                            <use xlink:href="#path-1"></use>
                        </mask>
                        <g id="Clip-2"></g>
                        <path d="M10.2264049,5.22531195 C10.2650988,5.07587318 10.2016408,4.91907289 10.0669861,4.83294315 C8.50994449,3.8251516 7.5201551,2.19752041 7.37853551,0.410880466 C7.36305796,0.208438776 7.17732735,0.0560553936 6.96451102,0.0707784257 C6.95212898,0.0722507289 6.93897306,0.0729868805 6.92659102,0.0751953353 C6.39261551,0.161325073 5.89346449,0.384379009 5.48330939,0.720800292 C5.33782041,0.840056851 5.12268245,0.840056851 4.97719347,0.720800292 C4.43238367,0.271747813 3.73434612,0.0251370262 3.01309224,0.0258715345 C1.32758694,0.0251370262 0.00657795918,1.54234548 0.00657795918,3.4784242 C-0.0599755102,4.82484548 0.374943673,6.14991837 1.2324,7.22249125 C1.31830041,7.32187172 1.34306449,7.45658746 1.29895347,7.57805248 C0.972377143,8.47983819 0.808315102,9.42652915 0.81218449,10.3798455 C0.811410612,10.9783367 0.874868571,11.5760918 1.00178449,12.1628047 C1.09078041,12.5669519 1.46456327,12.8555233 1.89793469,12.8569968 C2.3769649,12.8577318 2.77938122,12.5146851 2.83123102,12.0612157 C3.03011755,10.3297872 4.06092245,9.02311808 5.23025143,9.02311808 C6.39958041,9.02311808 7.43038531,10.3297872 7.62927184,12.0619519 C7.68112163,12.5146851 8.08353796,12.8577318 8.56256816,12.8569968 C8.99593959,12.8555233 9.36972245,12.5669519 9.45871837,12.1628047 C9.58563429,11.5760918 9.64909224,10.9783367 9.64831837,10.3798455 C9.65218776,9.42652915 9.48812571,8.47983819 9.16154939,7.57805248 C9.11666449,7.45732362 9.14142857,7.32334402 9.2265551,7.22322741 C9.71332408,6.63725073 10.055378,5.95410204 10.2264049,5.22531195" id="Fill-1" fill="#FF8811" mask="url(#mask-2)"></path>
                    </g>
                    <g id="Group-6" transform="translate(7.714286, 0.000000)">
                        <mask id="mask-4" fill="white">
                            <use xlink:href="#path-3"></use>
                        </mask>
                        <g id="Clip-5"></g>
                        <path d="M7.82931395,3.88312088 L5.55160408,6.69356044 C5.09590524,7.2541978 4.23470502,7.36734066 3.62841379,6.94668132 C3.57586332,6.91041758 3.52723453,6.87052747 3.48017441,6.82773626 L2.30367137,5.73982418 C1.99699625,5.45624176 1.99778058,4.99714286 2.30445571,4.71428571 C2.61113083,4.4307033 3.10683078,4.4307033 3.4135059,4.71428571 L4.1123487,5.35978022 C4.26450976,5.50120879 4.51235974,5.50193407 4.6668738,5.36050549 C4.67942317,5.34817582 4.69197253,5.33512088 4.70373756,5.32134066 L6.57437739,3.01351648 C6.83399239,2.69294505 7.32577066,2.6283956 7.67323122,2.86846154 C8.01912311,3.10852747 8.08971329,3.56327473 7.82931395,3.88384615 L7.82931395,3.88312088 Z M5.10453293,0 C2.28955334,0 0.00635311638,2.11054945 0.00635311638,4.71428571 C0.00635311638,7.31802198 2.28955334,9.42857143 5.10453293,9.42857143 C7.92029686,9.42857143 10.2027127,7.31802198 10.2027127,4.71428571 C10.1987911,2.112 7.91872819,0.0029010989 5.10453293,0 L5.10453293,0 Z" id="Fill-4" fill="#FF8811" mask="url(#mask-4)"></path>
                    </g>
                </g>
            </g>
        </g>
    </g>
</svg>