<?xml version="1.0" encoding="UTF-8"?>
<svg width="17px" height="18px" viewBox="0 0 17 18" version="1.1" xmlns="http://www.w3.org/2000/svg" xmlns:xlink="http://www.w3.org/1999/xlink">
    <title>Pet Grooming</title>
    <g id="Page-1" stroke="none" stroke-width="1" fill="none" fill-rule="evenodd">
        <g id="CATEGORIES" transform="translate(-64.000000, -443.000000)" fill="#FF8811">
            <g id="Pet-Grooming" transform="translate(64.000000, 443.000000)">
                <g id="Group-7-Copy-2">
                    <path d="M13.5099619,2.98518482 C11.694796,2.98518482 10.2106981,4.3978425 10.1666644,6.16863874 C10.1666644,6.31826108 10.0427178,6.44002819 9.88941538,6.44002819 C9.77933119,6.44002819 9.68066314,6.37795084 9.63499859,6.28005963 L9.15307449,5.2303157 C9.08702398,5.08706027 9.11393344,4.91833722 9.22157132,4.80134529 C9.69289472,4.29438025 9.95546589,3.63460942 9.95628133,2.95016683 L9.95628133,0.199662642 C9.95628133,0.0898334821 9.86413678,0.000696772262 9.75242172,0.000696772262 C9.70349542,0.000696772262 9.65538455,0.0174099053 9.61950526,0.0484485811 L8.06935684,1.34729778 C7.97068879,1.43006758 7.83695689,1.46190212 7.7097485,1.43325104 C7.31262999,1.3337681 6.8967564,1.3337681 6.49963789,1.43325104 C6.37161406,1.46349385 6.23625129,1.43165931 6.13595236,1.34729778 L4.58009587,0.0484485811 C4.49529027,-0.0231791321 4.36726644,-0.0144246339 4.29387699,0.0683451681 C4.26125945,0.104954888 4.24413524,0.15111497 4.24413524,0.199662642 L4.24413524,2.95016683 C4.24495068,3.63460942 4.50670641,4.29438025 4.97802981,4.80134529 C5.08566769,4.91833722 5.11257715,5.08706027 5.04652664,5.2303157 L3.60238521,8.37318058 C3.15063233,9.36800994 3.60972416,10.5315623 4.62902217,10.9732666 C4.89322422,11.0878709 5.17862766,11.1451731 5.46729286,11.1428571 L8.72904651,11.1428571 C9.37242742,11.1467648 9.97829816,10.8514995 10.3607388,10.346922 C10.4218967,10.3310047 10.4822391,10.3095164 10.5385044,10.2800695 C11.3278487,9.85428252 11.8122192,9.03852245 11.7975413,8.15829745 L11.7975413,6.16863874 C11.8326051,5.27329233 12.5917783,4.56736142 13.5099619,4.57691178 C14.1402958,4.57691178 14.6515757,5.07591819 14.6515757,5.69112066 C14.6507603,6.0954193 14.3156151,6.42251919 13.9013724,6.42331506 C13.8059661,6.42331506 13.7138215,6.39227638 13.6379858,6.33497421 C13.277562,6.0715434 12.7670975,6.14317111 12.496372,6.49494277 C12.2321699,6.83955166 12.2965896,7.32662011 12.6423355,7.5948261 C13.0027592,7.86860314 13.4479886,8.01663375 13.9046341,8.01504202 C15.2199363,8.01345029 16.2840834,6.97405259 16.2857143,5.69112066 C16.2857143,4.19648904 15.044617,2.98518482 13.5132237,2.98518482 L13.5099619,2.98518482 Z" id="Fill-1"></path>
                    <path d="M0.397035007,14.5714286 L5.57922426,14.5714286 C5.72062851,14.5714286 5.85097321,14.4816623 5.92128035,14.3376623 C6.35971252,13.4446753 7.3266332,13.1407792 8.08105252,13.6597403 C8.31883285,13.8224416 8.51553485,14.0562078 8.65377923,14.3376623 C8.72487634,14.4825974 8.85522103,14.5714286 8.99662528,14.5714286 L14.1764446,14.5714286 C14.3952657,14.5714286 14.5714286,14.361974 14.5714286,14.1038961 C14.5714286,14.0365714 14.5595791,13.9692468 14.53509,13.9084675 C14.0848084,12.7471169 13.1052482,12.0018701 12.0253621,12 L2.54574762,12 C1.46665151,12.0018701 0.486301377,12.7471169 0.0360196889,13.9084675 C-0.0548266166,14.1431688 0.0320698495,14.4208831 0.230351786,14.5284156 C0.282489666,14.5564675 0.339367353,14.5714286 0.397035007,14.5714286" id="Fill-3"></path>
                    <path d="M14.1750246,15.4285714 L8.99418466,15.4285714 C8.85356412,15.4285714 8.72242362,15.5174026 8.65211334,15.6623377 C8.21366166,16.5553247 7.24669793,16.8592208 6.49224502,16.3402597 C6.2544541,16.1775584 6.05774335,15.9437922 5.91949281,15.6623377 C5.84839254,15.5183377 5.71804204,15.4285714 5.5774215,15.4285714 L0.395001522,15.4285714 C0.176960682,15.4285714 0,15.638026 0,15.8961039 C0,15.9634286 0.0126400487,16.0307532 0.0363401401,16.0915325 C0.485851872,17.2528831 1.46624565,17.9981299 2.54538981,18 L12.0246363,18 C13.1053605,17.9981299 14.0849643,17.2528831 14.535266,16.0915325 C14.6261164,15.8568312 14.540006,15.5791169 14.3417153,15.4715844 C14.2895751,15.4435325 14.2319048,15.4285714 14.1750246,15.4285714" id="Fill-5"></path>
                </g>
            </g>
        </g>
    </g>
</svg>