<?xml version="1.0" encoding="UTF-8"?>
<svg width="242px" height="63px" viewBox="0 0 242 63" version="1.1" xmlns="http://www.w3.org/2000/svg" xmlns:xlink="http://www.w3.org/1999/xlink">
    <title>Group 16</title>
    <defs>
        <polygon id="path-1" points="0.216733333 0.0989904255 38.2164 0.0989904255 38.2164 49.9308511 0.216733333 49.9308511"></polygon>
    </defs>
    <g id="Page-1" stroke="none" stroke-width="1" fill="none" fill-rule="evenodd">
        <g id="Splash-1" transform="translate(-67.000000, -360.000000)">
            <g id="Group-16" transform="translate(67.000000, 360.000000)">
                <polygon id="Fill-1" fill="#FEFEFE" points="0 0 0 52 9.66363803 52 9.66363803 47.2411198 16.3404376 38.487727 23.9658628 52 35 52 22.5252199 30.3596956 35 14.8673338 23.9658628 14.8673338 9.66363803 32.7908047 9.66363803 0"></polygon>
                <g id="Group-15" transform="translate(35.000000, 0.000000)">
                    <path d="M28.6683333,33.5043718 C28.6683333,32.200808 28.4196667,30.937792 27.9216667,29.7153239 C27.4236667,28.4935261 26.746,27.4107973 25.8896667,26.4681431 C25.0326667,25.5251537 24.0313333,24.7691537 22.885,24.1981324 C21.739,23.6281165 20.5173333,23.342941 19.2206667,23.342941 C17.9236667,23.342941 16.7026667,23.5644463 15.556,24.0061165 C14.41,24.448792 13.414,25.100909 12.569,25.9617973 C11.7233333,26.8233559 11.058,27.8883239 10.5716667,29.1567016 C10.0853333,30.4257495 9.842,31.8750846 9.842,33.5043718 C9.842,35.1339941 10.0853333,36.5833293 10.5716667,37.852042 C11.058,39.1210899 11.7233333,40.1857229 12.569,41.0469463 C13.414,41.9085048 14.41,42.5602867 15.556,43.002292 C16.7026667,43.4449676 17.9236667,43.6658027 19.2206667,43.6658027 C20.5173333,43.6658027 21.739,43.3812973 22.885,42.8106112 C24.0313333,42.239925 25.0326667,41.4835899 25.8896667,40.5406005 C26.746,39.5979463 27.4236667,38.5152176 27.9216667,37.2930846 C28.4196667,36.0709516 28.6683333,34.8086059 28.6683333,33.5043718 L28.6683333,33.5043718 Z M38.2203333,52.5353984 L35.928,52.5353984 L32.2463333,47.4022388 C31.3426667,48.2172176 30.3876667,48.9795846 29.3806667,49.6893399 C28.3733333,50.3997654 27.314,51.0163612 26.2023333,51.5401324 C25.091,52.0639037 23.95,52.477425 22.781,52.7800261 C21.6113333,53.0819569 20.4246667,53.2337601 19.2206667,53.2337601 C16.6036667,53.2337601 14.1433333,52.7914197 11.8396667,51.9067388 C9.53533333,51.022058 7.52066667,49.7362548 5.79566667,48.0479888 C4.07033333,46.3603931 2.70966667,44.2944622 1.71466667,41.8498612 C0.718333333,39.4055952 0.220666667,36.6242122 0.220666667,33.5043718 C0.220666667,30.594308 0.718333333,27.923175 1.71466667,25.4903027 C2.70966667,23.0581005 4.07033333,20.9683771 5.79566667,19.2224729 C7.52066667,17.4765686 9.53533333,16.1203931 11.8396667,15.1542814 C14.1433333,14.1885048 16.6036667,13.7049463 19.2206667,13.7049463 C20.4246667,13.7049463 21.6173333,13.8567495 22.7983333,14.1590154 C23.9793333,14.4619516 25.1253333,14.8808346 26.237,15.4159995 C27.3486667,15.9518346 28.408,16.5804941 29.415,17.3016431 C30.423,18.0237973 31.3656667,18.8032548 32.2463333,19.6413559 L35.928,15.206558 L38.2203333,15.206558 L38.2203333,52.5353984 Z" id="Fill-2" fill="#FEFEFE"></path>
                    <path d="M73.1286333,33.5043718 C73.1286333,32.0610686 72.8793,30.7169569 72.3819667,29.4710314 C71.8836333,28.2261112 71.2059667,27.1490793 70.3496333,26.240941 C69.4929667,25.3331378 68.4916333,24.6233824 67.3449667,24.1110048 C66.1989667,23.5989622 64.9773,23.342941 63.6806333,23.342941 C62.3836333,23.342941 61.1626333,23.6281165 60.0163,24.1981324 C58.8703,24.7691537 57.8683,25.5251537 57.0116333,26.4681431 C56.1546333,27.4107973 55.4833,28.4935261 54.9969667,29.7153239 C54.5106333,30.937792 54.2676333,32.200808 54.2676333,33.5043718 C54.2676333,34.9480101 54.5106333,36.286425 54.9969667,37.5199516 C55.4833,38.7541484 56.1546333,39.8244782 57.0116333,40.7326165 C57.8683,41.6404197 58.8703,42.3562069 60.0163,42.8803133 C61.1626333,43.4040846 62.3836333,43.6658027 63.6806333,43.6658027 C64.9773,43.6658027 66.1989667,43.4040846 67.3449667,42.8803133 C68.4916333,42.3562069 69.4929667,41.6404197 70.3496333,40.7326165 C71.2059667,39.8244782 71.8836333,38.7541484 72.3819667,37.5199516 C72.8793,36.286425 73.1286333,34.9480101 73.1286333,33.5043718 M82.6803,33.5043718 C82.6803,36.437558 82.1823,39.1147229 81.1869667,41.5358665 C80.1909667,43.9570101 78.8363,46.0350048 77.1229667,47.7688452 C75.4089667,49.5033559 73.4003,50.8478027 71.0963,51.8021856 C68.7919667,52.7562335 66.3206333,53.2337601 63.6806333,53.2337601 C61.0639667,53.2337601 58.6036333,52.7448399 56.2996333,51.7669995 C53.9953,50.7894941 51.9806333,49.4276218 50.2559667,47.6817176 C48.5306333,45.9358133 47.1699667,43.8578186 46.1746333,41.4484037 C45.1786333,39.0389888 44.6809667,36.3909782 44.6809667,33.5043718 L44.6809667,0.261148404 L54.1983,0.261148404 L54.1983,17.7205261 C54.7073,17.0694144 55.3273,16.4873346 56.0563,15.9746218 C56.7859667,15.4629144 57.5729667,15.0440314 58.4183,14.7176378 C59.2633,14.3922495 60.1376333,14.1415899 61.0409667,13.9669995 C61.9439667,13.792409 62.8236333,13.7049463 63.6806333,13.7049463 C66.3206333,13.7049463 68.7919667,14.2002335 71.0963,15.1891324 C73.4003,16.1790367 75.4089667,17.5583346 77.1229667,19.3270261 C78.8363,21.0967229 80.1909667,23.1857761 81.1869667,25.5948559 C82.1823,28.0046059 82.6803,30.6408878 82.6803,33.5043718" id="Fill-4" fill="#FEFEFE"></path>
                    <path d="M157.599967,33.5043718 C157.599967,31.967909 157.350633,30.5772176 156.852967,29.3316271 C156.354967,28.0863718 155.6773,27.0153718 154.820967,26.1189622 C153.9643,25.2228878 152.962967,24.5359197 151.8163,24.0587282 C150.6703,23.5818718 149.448633,23.342941 148.151967,23.342941 C146.854967,23.342941 145.633967,23.5818718 144.487633,24.0587282 C143.3413,24.5359197 142.3453,25.2228878 141.5003,26.1189622 C140.654967,27.0153718 139.9893,28.0863718 139.5033,29.3316271 C139.016967,30.5772176 138.773633,31.967909 138.773633,33.5043718 C138.773633,34.9480101 139.016967,36.286425 139.5033,37.5199516 C139.9893,38.7541484 140.654967,39.8244782 141.5003,40.7326165 C142.3453,41.6404197 143.3413,42.3562069 144.487633,42.8803133 C145.633967,43.4040846 146.854967,43.6658027 148.151967,43.6658027 C149.448633,43.6658027 150.6703,43.4215101 151.8163,42.9325899 C152.962967,42.4436697 153.9643,41.7573718 154.820967,40.8720207 C155.6773,39.9880101 156.354967,38.916675 156.852967,37.659691 C157.350633,36.4023718 157.599967,35.0180473 157.599967,33.5043718 M167.151633,33.5043718 C167.151633,36.2978186 166.653633,38.8995846 165.6583,41.3086644 C164.6623,43.7184144 163.307633,45.8017707 161.5943,47.5590686 C159.8803,49.3173718 157.871633,50.7020314 155.567633,51.7147229 C153.2633,52.7274144 150.791967,53.2337601 148.151967,53.2337601 C145.5353,53.2337601 143.074967,52.7274144 140.770967,51.7147229 C138.466633,50.7020314 136.451967,49.3173718 134.7273,47.5590686 C133.001967,45.8017707 131.6413,43.7184144 130.645967,41.3086644 C129.649967,38.8995846 129.1523,36.2978186 129.1523,33.5043718 C129.1523,30.6643452 129.649967,28.0340952 130.645967,25.6126165 C131.6413,23.191808 133.001967,21.1024197 134.7273,19.3444516 C136.451967,17.5871537 138.466633,16.2078559 140.770967,15.206558 C143.074967,14.2059303 145.5353,13.7049463 148.151967,13.7049463 C150.791967,13.7049463 153.2633,14.176441 155.567633,15.1194303 C157.871633,16.0620846 159.8803,17.4008346 161.5943,19.1350101 C163.307633,20.8695207 164.6623,22.9532122 165.6583,25.3854144 C166.653633,27.8182867 167.151633,30.5246059 167.151633,33.5043718" id="Fill-6" fill="#FEFEFE"></path>
                    <polygon id="Fill-8" fill="#FEFEFE" points="181.948933 52.5354319 172.396933 52.5354319 172.396933 0.261181915 181.948933 0.261181915 181.948933 33.2249266 196.085933 15.2065915 206.9926 15.2065915 194.661933 30.7806606 206.9926 52.5354319 196.085933 52.5354319 188.5486 38.9518947 181.948933 47.7514532"></polygon>
                    <g id="Group-12" transform="translate(86.333333, 12.734043)">
                        <mask id="mask-2" fill="white">
                            <use xlink:href="#path-1"></use>
                        </mask>
                        <g id="Clip-11"></g>
                        <path d="M10.5677333,15.8127989 C11.0540667,14.5786021 11.7194,13.5079372 12.5650667,12.600134 C13.4100667,11.6923309 14.4060667,10.9762085 15.5520667,10.4527723 C16.6987333,9.92866596 17.9197333,9.66694787 19.2167333,9.66694787 C20.5134,9.66694787 21.7350667,9.91157553 22.8810667,10.4004957 C24.0274,10.889416 25.0287333,11.5753787 25.8857333,12.4607298 C26.7420667,13.3450755 27.4197333,14.4157404 27.9177333,15.6730596 C28.4154,16.9303787 28.6644,18.3150383 28.6644,19.8283787 C28.6644,21.3648415 28.4154,22.755533 27.9177333,24.0014585 C27.4197333,25.2463787 26.7420667,26.3173787 25.8857333,27.2137883 C25.0287333,28.1098628 24.0274,28.7964957 22.8810667,29.2743574 C21.7350667,29.7508787 20.5134,29.9901447 19.2167333,29.9901447 C17.9197333,29.9901447 16.6987333,29.7508787 15.5520667,29.2743574 C14.4060667,28.7964957 13.4100667,28.1098628 12.5650667,27.2137883 C11.7194,26.3173787 11.0540667,25.2463787 10.5677333,24.0014585 C10.0817333,22.755533 9.8384,21.3648415 9.8384,19.8283787 C9.8384,18.3847404 10.0817333,17.0463255 10.5677333,15.8127989 M36.7230667,12.0240862 C35.7270667,9.61467128 34.3724,7.53097979 32.6587333,5.77368191 C30.9450667,4.01571383 28.9364,2.63071915 26.6324,1.61836277 C24.3280667,0.60533617 21.8564,0.0989904255 19.2167333,0.0989904255 C16.5997333,0.0989904255 14.1397333,0.60533617 11.8357333,1.61836277 C9.5314,2.63071915 7.51673333,4.01571383 5.79206667,5.77368191 C4.0664,7.53097979 2.70573333,9.61467128 1.71073333,12.0240862 C0.7144,14.4335011 0.216733333,17.0349319 0.216733333,19.8283787 C0.216733333,22.6684053 0.7144,25.2989904 1.71073333,27.720134 C2.70573333,30.1409426 4.0664,32.2299957 5.79206667,33.9879638 C7.51673333,35.7455968 9.5314,37.1252298 11.8357333,38.1261926 C11.9067333,38.1570223 11.9790667,38.1831606 12.0507333,38.2133202 C12.5824,38.6958734 13.0194,39.2813043 13.3237333,39.9458202 L17.3170667,48.6827138 C17.8094,49.7580702 19.0754,50.2288947 20.1450667,49.7342777 C20.6074,49.5204798 20.9784,49.1475064 21.1910667,48.6827138 L25.1910667,39.9371074 C25.4710667,39.327884 25.8624,38.7846766 26.3357333,38.3265862 C26.4344,38.2877138 26.5340667,38.2538681 26.6324,38.2136553 C28.9364,37.270666 30.9450667,35.931916 32.6587333,34.1977404 C34.3724,32.4632298 35.7270667,30.3798734 36.7230667,27.9470011 C37.7184,25.5141287 38.2164,22.8081447 38.2164,19.8283787 C38.2164,17.0349319 37.7184,14.4335011 36.7230667,12.0240862" id="Fill-10" fill="#FEFEFE" mask="url(#mask-2)"></path>
                    </g>
                    <path d="M111.042367,32.5625553 C111.042367,35.6123585 108.583367,38.0844383 105.5497,38.0844383 C102.516367,38.0844383 100.057367,35.6123585 100.057367,32.5625553 C100.057367,29.5127521 102.516367,27.0406723 105.5497,27.0406723 C108.583367,27.0406723 111.042367,29.5127521 111.042367,32.5625553" id="Fill-13" fill="#FEFEFE"></path>
                </g>
            </g>
        </g>
    </g>
</svg>