<?xml version="1.0" encoding="UTF-8"?>
<svg width="124px" height="134px" viewBox="0 0 124 134" version="1.1" xmlns="http://www.w3.org/2000/svg" xmlns:xlink="http://www.w3.org/1999/xlink">
    <title>Group 41</title>
    <defs>
        <polygon id="path-1" points="0.0606326996 0.0211814815 89.9431878 0.0211814815 89.9431878 8.91358025 0.0606326996 8.91358025"></polygon>
        <polygon id="path-3" points="0 0.232796914 19.9540635 0.232796914 19.9540635 20.0874451 0 20.0874451"></polygon>
        <polygon id="path-5" points="0.0646638783 0.0161851852 6.94359924 0.0161851852 6.94359924 6.8607358 0.0646638783 6.8607358"></polygon>
    </defs>
    <g id="Page-1" stroke="none" stroke-width="1" fill="none" fill-rule="evenodd">
        <g id="Booking-Confirmation-2" transform="translate(-126.000000, -326.000000)">
            <g id="Group" transform="translate(25.000000, 234.000000)">
                <g id="Rectangle">
                    <g id="Group-41" transform="translate(101.000000, 92.000000)">
                        <g id="Group-40">
                            <path d="M105.723838,124.091393 L24.7780053,124.091393 C22.3204008,124.091393 20.3095262,122.090528 20.3095262,119.644923 C20.3095262,117.199553 22.3204008,115.198689 24.7780053,115.198689 L105.723838,115.198689 C108.181443,115.198689 110.192317,117.199553 110.192317,119.644923 C110.192317,122.090528 108.181443,124.091393 105.723838,124.091393" id="Fill-1" fill="#D7D7D7"></path>
                            <g id="Group-5" transform="translate(11.079848, 124.070235)">
                                <mask id="mask-2" fill="white">
                                    <use xlink:href="#path-1"></use>
                                </mask>
                                <g id="Clip-4"></g>
                                <path d="M85.4747087,8.91365062 L4.52911179,8.91365062 C2.07127148,8.91365062 0.0606326996,6.91278642 0.0606326996,4.46741605 C0.0606326996,2.02181111 2.07127148,0.0211814815 4.52911179,0.0211814815 L85.4747087,0.0211814815 C87.932549,0.0211814815 89.9431878,2.02181111 89.9431878,4.46741605 C89.9431878,6.91278642 87.932549,8.91365062 85.4747087,8.91365062" id="Fill-3" fill="#C6C5C4" mask="url(#mask-2)"></path>
                            </g>
                            <path d="M79.3265483,46.7224543 L42.8523962,83.0150346 C41.7521909,84.109763 39.9520692,84.109763 38.8518639,83.0150346 L2.37771179,46.7224543 C1.27750646,45.6277259 1.27750646,43.8363309 2.37771179,42.7416025 L38.8518639,6.44925679 C39.9520692,5.3545284 41.7521909,5.3545284 42.8523962,6.44925679 L79.3265483,42.7416025 C80.4267536,43.8363309 80.4267536,45.6277259 79.3265483,46.7224543" id="Fill-6" fill="#EFEEEE"></path>
                            <g id="Group-10" transform="translate(0.000000, 64.255420)">
                                <mask id="mask-4" fill="white">
                                    <use xlink:href="#path-3"></use>
                                </mask>
                                <g id="Clip-9"></g>
                                <path d="M19.1289095,12.1505469 L11.9772213,19.2663988 C10.877016,20.3611272 9.07665856,20.3611272 7.97668897,19.2663988 L0.82500076,12.1505469 C-0.275204563,11.0558185 -0.275204563,9.26465802 0.82500076,8.16992963 L7.97668897,1.05384321 C9.07665856,-0.0408851852 10.877016,-0.0408851852 11.9772213,1.05384321 L19.1289095,8.16992963 C20.2291148,9.26465802 20.2291148,11.0558185 19.1289095,12.1505469" id="Fill-8" fill="#EFEEEE" mask="url(#mask-4)"></path>
                            </g>
                            <path d="M19.6699125,91.8124099 L17.9855399,93.4883975 C16.8853346,94.5831259 15.0852129,94.5831259 13.9850076,93.4883975 L12.300635,91.8124099 C11.2004297,90.7176815 11.2004297,88.9262864 12.300635,87.831558 L13.9850076,86.1555704 C15.0852129,85.060842 16.8853346,85.060842 17.9855399,86.1555704 L19.6699125,87.831558 C20.7701179,88.9262864 20.7701179,90.7176815 19.6699125,91.8124099" id="Fill-11" fill="#EFEEEE"></path>
                            <path d="M115.308425,33.0658642 L108.156973,40.181716 C107.056767,41.2764444 105.25641,41.2764444 104.156205,40.181716 L97.0045163,33.0658642 C95.904311,31.9711358 95.904311,30.1797407 97.0045163,29.0850123 L104.156205,21.9691605 C105.25641,20.8744321 107.056767,20.8744321 108.156973,21.9691605 L115.308425,29.0850123 C116.40863,30.1797407 116.40863,31.9711358 115.308425,33.0658642" id="Fill-13" fill="#EFEEEE"></path>
                            <path d="M115.849428,48.4722136 L114.165056,50.1482012 C113.06485,51.2429296 111.264729,51.2429296 110.164523,50.1482012 L108.480151,48.4722136 C107.379945,47.3774852 107.379945,45.5860901 108.480151,44.4913617 L110.164523,42.8153741 C111.264729,41.7206457 113.06485,41.7206457 114.165056,42.8153741 L115.849428,44.4913617 C116.949633,45.5860901 116.949633,47.3774852 115.849428,48.4722136" id="Fill-15" fill="#EFEEEE"></path>
                            <path d="M123.158804,72.7001691 L86.6846517,108.992749 C85.5844464,110.087478 83.7843247,110.087478 82.6841194,108.992749 L46.2099673,72.7001691 C45.109762,71.6054407 45.109762,69.8140457 46.2099673,68.7193173 L82.6841194,32.4269716 C83.7843247,31.3322432 85.5844464,31.3322432 86.6846517,32.4269716 L123.158804,68.7193173 C124.259009,69.8140457 124.259009,71.6054407 123.158804,72.7001691" id="Fill-17" fill="#EFEEEE"></path>
                            <path d="M59.8424236,51.5269914 C59.8879217,51.200942 59.7361042,50.8786457 59.4546289,50.7053 C55.2358,48.0875222 45.6517316,43.9595963 27.178089,43.719935 C26.2551612,43.7072012 25.4965452,44.4413988 25.4833437,45.3597321 C25.4833437,45.3677074 25.4833437,45.3754481 25.4833437,45.3831889 L25.4833437,97.8227198 C25.4833437,98.7323741 26.2174426,99.4731395 27.1314122,99.4860407 C44.351146,99.7055963 53.8552981,103.311374 58.5052981,105.912498 C58.761549,106.06051 59.0781498,106.06051 59.3344008,105.912498 C59.5911232,105.763312 59.74907,105.489806 59.74907,105.194016 L59.74907,52.5647198 C59.7587354,52.2173247 59.7896175,51.8706333 59.8424236,51.5269914" id="Fill-19" fill="#F58820"></path>
                            <path d="M86.492711,89.1542864 C86.4905894,90.3695827 85.6103308,91.4070765 84.406635,91.612558 C78.9869392,92.6615457 73.9972357,95.2736938 70.0584677,99.1234222 C68.7420875,100.577509 67.5907262,102.171632 66.625365,103.876706 C66.4016464,104.278521 66.5475703,104.784719 66.9511597,105.007089 C67.1894943,105.138681 67.4770989,105.146188 67.7217985,105.027731 C77.0873346,101.06236 87.2074791,99.1712741 97.3809011,99.4860642 C98.294635,99.473163 99.0287339,98.7323975 99.0287339,97.8227432 L99.0287339,45.3832123 C99.0287339,44.4646444 98.2807262,43.7198914 97.3575627,43.7198914 C97.3497833,43.7198914 97.3417681,43.7198914 97.3337529,43.7198914 C93.6097452,43.7665704 90.2669316,43.982842 87.2381255,44.3056074 C86.8133194,44.3513481 86.4917681,44.7085951 86.492711,45.1336321 L86.492711,89.1542864 Z" id="Fill-21" fill="#757575"></path>
                            <path d="M80.8696882,87.3382148 C81.2294297,87.2357086 81.4776654,86.9089556 81.4781373,86.5364617 L81.4781373,36.8911037 C81.4786084,36.4318198 81.1049582,36.0586222 80.6433764,36.0586222 C80.5448365,36.0586222 80.4472395,36.0757457 80.3548289,36.1095235 C76.4509506,37.4130173 72.9195437,39.6320296 70.0585856,42.5791407 C67.263635,45.2731531 65.4081141,48.7862765 64.7633608,52.6045728 L64.7633608,95.3548074 C64.7628897,95.8140914 65.1367757,96.1870547 65.5983574,96.1870547 C65.8392852,96.1870547 66.0686616,96.0838444 66.2275513,95.9036963 L66.304403,95.8169062 C70.2834829,91.7117333 75.3233992,88.7779926 80.8696882,87.3382148" id="Fill-23" fill="#757575"></path>
                            <path d="M109.456804,72.5187543 C109.695846,73.1502111 110.404249,73.4692235 111.038629,73.2313716 C111.369138,73.1072852 111.63034,72.8476185 111.754811,72.5187543 L113.394629,68.163063 C113.443899,68.030063 113.548804,67.924742 113.682469,67.874779 L118.059716,66.2431247 C118.693861,66.0069148 119.015412,65.3039148 118.778021,64.6729272 C118.653785,64.3428901 118.39164,64.0820506 118.059716,63.9584333 L113.680348,62.3227914 C113.547625,62.273063 113.442484,62.1686802 113.392507,62.0366185 L111.750804,57.6809272 C111.447876,57.0494704 110.688081,56.782063 110.053465,57.0832481 C109.790378,57.2082728 109.578446,57.4191494 109.452796,57.6809272 L107.811093,62.0345074 C107.761116,62.1668037 107.655975,62.2711864 107.523252,62.3209148 L103.147656,63.9565568 C102.513747,64.1927667 102.192195,64.8957667 102.429587,65.5265198 C102.554059,65.8570259 102.815732,66.1173963 103.147656,66.2412481 L107.525374,67.874779 C107.658568,67.924742 107.763709,68.030063 107.812979,68.163063 L109.456804,72.5187543 Z" id="Fill-25" fill="#757575"></path>
                            <path d="M27.8080844,27.4036296 L30.9241148,28.5663827 C31.0400996,28.6093086 31.1315673,28.700321 31.1744722,28.8157284 L32.3430426,31.9146049 C32.5111262,32.355358 33.0066548,32.5772593 33.4496129,32.4100123 C33.6789894,32.3234568 33.8605103,32.1428395 33.9474989,31.9146049 L35.1177194,28.8157284 C35.1606243,28.700321 35.2523278,28.6093086 35.3680768,28.5663827 L38.4911795,27.4036296 C38.9346091,27.2377901 39.1587992,26.7454321 38.99213,26.3042099 C38.9051414,26.0738642 38.7226776,25.8923086 38.4911795,25.8055185 L35.3680768,24.643 C35.2523278,24.5989012 35.1610958,24.5074198 35.1177194,24.3920123 L33.9474989,21.2947778 C33.7317954,20.8540247 33.1976053,20.6708272 32.7544114,20.8854568 C32.5754837,20.9722469 32.4302669,21.1165062 32.3430426,21.2947778 L31.1744722,24.3920123 C31.1310958,24.5074198 31.0398639,24.5989012 30.9241148,24.643 L27.8080844,25.8055185 C27.364419,25.9715926 27.1402289,26.4639506 27.3068981,26.9051728 C27.3938867,27.1355185 27.5765863,27.3170741 27.8080844,27.4036296 L27.8080844,27.4036296 Z" id="Fill-27" fill="#757575"></path>
                            <path d="M10.3935103,56.9714765 L12.7280578,57.8424272 C12.8148106,57.874563 12.8834114,57.9428222 12.915708,58.0291432 L13.791016,60.3506617 C13.9171376,60.6809333 14.2881947,60.8470074 14.6198829,60.7217481 C14.7919741,60.6570074 14.9277612,60.5216617 14.9928259,60.3506617 L15.8695483,58.0291432 C15.9018449,57.9428222 15.9704456,57.874563 16.0574342,57.8424272 L18.3966966,56.9714765 C18.729092,56.8471556 18.8971757,56.4784148 18.771997,56.1476741 C18.7069323,55.9752667 18.5702023,55.8392173 18.3966966,55.774242 L16.0574342,54.9032914 C15.9706814,54.8702173 15.9020806,54.8017235 15.8695483,54.7151679 L14.9928259,52.3950568 C14.8311072,52.0647852 14.431054,51.927563 14.0993658,52.088242 C13.9649932,52.1534519 13.8565521,52.2613531 13.791016,52.3950568 L12.915708,54.7151679 C12.8831757,54.8017235 12.8148106,54.8702173 12.7280578,54.9032914 L10.3935103,55.774242 C10.0613506,55.898563 9.89326692,56.2673037 10.0182099,56.5978099 C10.0835103,56.7704519 10.2202403,56.9065012 10.3935103,56.9714765 L10.3935103,56.9714765 Z" id="Fill-29" fill="#CBCBCB"></path>
                            <path d="M75.9304099,14.804284 C75.6413909,14.0320864 74.9016342,13.5188519 74.0732388,13.5162716 L66.0335125,13.5162716 C65.7529802,13.5165062 65.5030943,13.3405802 65.4099764,13.0773951 L62.5240297,4.93812346 C62.1409498,3.91845679 60.999254,3.40076543 59.9742502,3.78217284 C59.4372312,3.98202469 59.0133681,4.40377778 58.8125163,4.93812346 L58.8059156,4.95923457 L55.9265696,13.0773951 C55.8336875,13.3401111 55.584273,13.516037 55.3044479,13.5162716 L47.2621285,13.5162716 C46.1678167,13.5155679 45.2800144,14.3975432 45.2790713,15.4861728 C45.2790713,16.070716 45.5390943,16.6254691 45.9898319,17.0003086 L52.8371779,22.6517531 C53.0467521,22.8246296 53.1278471,23.1082222 53.0418015,23.3653086 L50.1650487,31.9486173 C49.8189802,32.9816543 50.3800449,34.097963 51.4180144,34.4423086 C52.0276418,34.6445062 52.6978548,34.5398889 53.2160144,34.1617654 L60.2774137,29.0099506 C60.509619,28.8405926 60.8255125,28.8405926 61.0579536,29.0099506 L68.116524,34.1605926 C68.9977255,34.8058889 70.2379612,34.6182346 70.8864859,33.7414198 C71.2683871,33.2253704 71.374235,32.5566173 71.1703186,31.9486173 L68.29333,23.3601481 C68.2070487,23.1028272 68.2883795,22.8194691 68.4981894,22.646358 L75.3585011,16.9874074 C75.9900525,16.4509506 76.2184859,15.5792963 75.9304099,14.804284" id="Fill-31" fill="#F58820"></path>
                            <path d="M40.5385703,33.4752086 C40.0637871,33.4752086 39.6788213,33.0919247 39.6788213,32.6197395 L39.6788213,30.9085667 L37.9590875,30.9085667 C37.4843042,30.9085667 37.0991027,30.5252827 37.0991027,30.052863 C37.0991027,29.5806778 37.4843042,29.1973938 37.9590875,29.1973938 L39.6788213,29.1973938 L39.6788213,27.486221 C39.6788213,27.0140358 40.0637871,26.6305173 40.5385703,26.6305173 C41.0133536,26.6305173 41.3983194,27.0140358 41.3983194,27.486221 L41.3983194,29.1973938 L43.1180532,29.1973938 C43.5928365,29.1973938 43.978038,29.5806778 43.978038,30.052863 C43.978038,30.5252827 43.5928365,30.9085667 43.1180532,30.9085667 L41.3983194,30.9085667 L41.3983194,32.6197395 C41.3983194,33.0919247 41.0133536,33.4752086 40.5385703,33.4752086" id="Fill-33" fill="#CBCBCB"></path>
                            <g id="Group-37" transform="translate(65.771863, 0.218383)">
                                <mask id="mask-6" fill="white">
                                    <use xlink:href="#path-5"></use>
                                </mask>
                                <g id="Clip-36"></g>
                                <path d="M3.50413156,6.8607358 C3.02934829,6.8607358 2.64438251,6.47745185 2.64438251,6.00526667 L2.64438251,4.29409383 L0.924648669,4.29409383 C0.449865399,4.29409383 0.0646638783,3.91057531 0.0646638783,3.43839012 C0.0646638783,2.96597037 0.449865399,2.58292099 0.924648669,2.58292099 L2.64438251,2.58292099 L2.64438251,0.871748148 C2.64438251,0.399328395 3.02934829,0.0160444444 3.50413156,0.0160444444 C3.97891483,0.0160444444 4.36388061,0.399328395 4.36388061,0.871748148 L4.36388061,2.58292099 L6.08361445,2.58292099 C6.55839772,2.58292099 6.94359924,2.96597037 6.94359924,3.43839012 C6.94359924,3.91057531 6.55839772,4.29409383 6.08361445,4.29409383 L4.36388061,4.29409383 L4.36388061,6.00526667 C4.36388061,6.47745185 3.97891483,6.8607358 3.50413156,6.8607358" id="Fill-35" fill="#757575" mask="url(#mask-6)"></path>
                            </g>
                            <path d="M89.6918167,28.9617235 C89.2170335,28.9617235 88.8320677,28.5784395 88.8320677,28.1062543 L88.8320677,26.3950815 L87.1123338,26.3950815 C86.6375506,26.3950815 86.252349,26.0117975 86.252349,25.5393778 C86.252349,25.0671926 86.6375506,24.6839086 87.1123338,24.6839086 L88.8320677,24.6839086 L88.8320677,22.9727358 C88.8320677,22.5005506 89.2170335,22.1170321 89.6918167,22.1170321 C90.1666,22.1170321 90.5515658,22.5005506 90.5515658,22.9727358 L90.5515658,24.6839086 L92.2712996,24.6839086 C92.7460829,24.6839086 93.1312844,25.0671926 93.1312844,25.5393778 C93.1312844,26.0117975 92.7460829,26.3950815 92.2712996,26.3950815 L90.5515658,26.3950815 L90.5515658,28.1062543 C90.5515658,28.5784395 90.1666,28.9617235 89.6918167,28.9617235" id="Fill-38" fill="#D7D7D7"></path>
                        </g>
                    </g>
                </g>
            </g>
        </g>
    </g>
</svg>